# xmcd
#
# Track frame offsets: 
#        150
#        14136
#        30701
#        45758
#        62056
#        73964
#        83114
#        99272
#        114821
#        126107
#        139788
#        155685
#
# Disc length: 2247 seconds
#
# Revision: 0
# Processed by: cddbd v1.5.2PL0 Copyright (c) Steve Scherf et al.
# Submitted via: ExactAudioCopy v0.99pb3
#
DISCID=9b08c50c
DTITLE=Verschiedene Interpreten - Volksmusik-10-Cd Wallet Box
DYEAR=1900
DGENRE=Folk
TTITLE0=Ein Dankeschön an uns're Freunde
TTITLE1=Rosen der Sehnsucht
TTITLE2=Hawai Hawai (ich komme zurück)
TTITLE3=Autobahn nach nirgendwo
TTITLE4=Sein größtes Spiel
TTITLE5=Stell Dich ein - vergiss nicht mein
TTITLE6=In der Hitze der Nacht
TTITLE7=Geborgenheit
TTITLE8=Steirerman syn very good
TTITLE9=Es chliises Kompliment (Ein kleines Kompliment)
TTITLE10=Du musst ein bisschen blond sein
TTITLE11=Mein Cowboy reite nicht so weit
EXTD=
EXTT0=
EXTT1=
EXTT2=
EXTT3=
EXTT4=
EXTT5=
EXTT6=
EXTT7=
EXTT8=
EXTT9=
EXTT10=
EXTT11=
PLAYORDER=
